<svg width="18" height="13" viewBox="0 0 18 13" fill="none" xmlns="http://www.w3.org/2000/svg">
<path fill-rule="evenodd" clip-rule="evenodd" d="M0.948 0.5H17.051C17.573 0.5 18 0.927 18 1.449V1.551C18 2.073 17.573 2.5 17.051 2.5H0.948C0.426 2.5 0 2.073 0 1.551V1.449C0 0.927 0.426 0.5 0.948 0.5ZM17.051 5.5H0.948C0.426 5.5 0 5.927 0 6.449V6.551C0 7.073 0.426 7.5 0.948 7.5H17.051C17.573 7.5 18 7.073 18 6.551V6.449C18 5.927 17.573 5.5 17.051 5.5ZM17.051 10.5H0.948C0.426 10.5 0 10.927 0 11.449V11.551C0 12.073 0.426 12.5 0.948 12.5H17.051C17.573 12.5 18 12.073 18 11.551V11.449C18 10.927 17.573 10.5 17.051 10.5Z" fill="#231F20"/>
</svg>
